<?xml version="1.0" encoding="UTF-8"?>
<!DOCTYPE svg PUBLIC "-//W3C//DTD SVG 1.1//EN" "http://www.w3.org/Graphics/SVG/1.1/DTD/svg11.dtd">
<!-- Creator: CorelDRAW 2017 -->
<svg xmlns="http://www.w3.org/2000/svg" xml:space="preserve" width="3.57459in" height="3.57459in" version="1.1" style="shape-rendering:geometricPrecision; text-rendering:geometricPrecision; image-rendering:optimizeQuality; fill-rule:evenodd; clip-rule:evenodd"
viewBox="0 0 2545.87 2545.87"
 xmlns:xlink="http://www.w3.org/1999/xlink">
 <defs>
  <style type="text/css">
   <![CDATA[
    .fil0 {fill:#FEFEFE}
   ]]>
  </style>
 </defs>
 <g id="Layer_x0020_1">
  <metadata id="CorelCorpID_0Corel-Layer"/>
  <path class="fil0" d="M2545.87 1272.93c0,-703.02 -569.91,-1272.93 -1272.93,-1272.93 -703.02,0 -1272.93,569.91 -1272.93,1272.93 0,703.02 569.91,1272.93 1272.93,1272.93 703.02,0 1272.93,-569.91 1272.93,-1272.93zm-952.92 49.83l-227.14 0 0 832.13 -344.14 0 0 -832.13 -163.67 0 0 -292.44 163.67 0 0 -189.25c0,-135.33 64.28,-347.24 347.2,-347.24l254.91 1.07 0 283.87 -184.96 0c-30.34,0 -73,15.16 -73,79.71l0 172.11 257.18 0 -30.07 292.17z"/>
 </g>
</svg>
