<?xml version="1.0" encoding="UTF-8"?>
<!DOCTYPE svg PUBLIC "-//W3C//DTD SVG 1.1//EN" "http://www.w3.org/Graphics/SVG/1.1/DTD/svg11.dtd">
<!-- Creator: CorelDRAW 2017 -->
<svg xmlns="http://www.w3.org/2000/svg" xml:space="preserve" width="3.74177in" height="3.74177in" version="1.1" style="shape-rendering:geometricPrecision; text-rendering:geometricPrecision; image-rendering:optimizeQuality; fill-rule:evenodd; clip-rule:evenodd"
viewBox="0 0 1119.58 1119.58"
 xmlns:xlink="http://www.w3.org/1999/xlink">
 <defs>
  <style type="text/css">
   <![CDATA[
    .fil0 {fill:#FEFEFE}
   ]]>
  </style>
 </defs>
 <g id="Layer_x0020_1">
  <metadata id="CorelCorpID_0Corel-Layer"/>
  <path class="fil0" d="M1119.58 559.79c0,-309.16 -250.63,-559.79 -559.79,-559.79 -309.16,0 -559.79,250.63 -559.79,559.79 0,309.16 250.63,559.79 559.79,559.79 309.16,0 559.79,-250.63 559.79,-559.79zm-225.32 45.04l0 230.79 -133.8 0 0 -215.32c0,-54.07 -19.32,-90.99 -67.77,-90.99 -36.97,0 -58.93,24.86 -68.63,48.93 -3.52,8.6 -4.43,20.55 -4.43,32.61l0 224.76 -133.82 0c0,0 1.8,-364.68 0,-402.43l133.83 0 0 57.03c-0.27,0.45 -0.65,0.89 -0.89,1.32l0.89 0 0 -1.32c17.78,-27.36 49.49,-66.48 120.59,-66.48 88.03,-0 154.03,57.52 154.03,181.1l0 0zm-548.43 -365.64c-45.77,0 -75.72,30.04 -75.72,69.52 0,38.64 29.08,69.55 73.96,69.55l0.87 0c46.67,0 75.69,-30.91 75.69,-69.55 -0.89,-39.48 -29.02,-69.52 -74.8,-69.52l0 0zm-67.77 596.43l133.76 0 0 -402.44 -133.76 0 0 402.44z"/>
 </g>
</svg>
